<svg width="191" height="19" viewBox="0 0 191 19" fill="none" xmlns="http://www.w3.org/2000/svg">
<g clip-path="url(#clip0)">
<path d="M11.35 4.88V3.69H11.68V8.97H11.35C11.3611 8.30156 11.3244 7.63318 11.24 6.97C11.1642 6.4549 10.93 5.97612 10.57 5.6C10.1613 5.22233 9.6724 4.942 9.13999 4.78C8.53172 4.58712 7.89809 4.48601 7.25999 4.48C6.40675 4.4564 5.55901 4.62373 4.77872 4.96976C3.99843 5.31578 3.30531 5.83176 2.74999 6.48C1.67462 7.6675 1.08869 9.21809 1.10999 10.82C1.07281 12.5765 1.69748 14.2827 2.85999 15.6C3.41329 16.275 4.1113 16.8169 4.90236 17.1856C5.69343 17.5543 6.55729 17.7403 7.42999 17.73C8.34291 17.7425 9.24638 17.544 10.07 17.15C10.7444 16.8204 11.3595 16.3811 11.89 15.85L12.25 16.31C11.5559 16.9223 10.7607 17.4096 9.89999 17.75C8.59046 18.281 7.15414 18.4172 5.76813 18.1418C4.38211 17.8664 3.107 17.1914 2.09999 16.2C1.41356 15.5625 0.868443 14.7881 0.499836 13.9269C0.131228 13.0657 -0.0526768 12.1367 -0.0400059 11.2C-0.0481806 10.2099 0.15963 9.22999 0.568946 8.32846C0.978261 7.42693 1.57924 6.62549 2.32999 5.98C3.77817 4.65729 5.67906 3.94132 7.63999 3.98C8.24503 3.97939 8.84842 4.04308 9.43999 4.17C10.1102 4.30429 10.7548 4.54393 11.35 4.88ZM18.64 4.72V4.34H21.64V4.72H20.57V15.6C20.5795 15.9611 20.5071 16.3197 20.3582 16.6488C20.2092 16.9778 19.9876 17.2689 19.71 17.5C19.1824 17.9826 18.495 18.2533 17.78 18.26C17.2756 18.2463 16.775 18.169 16.29 18.03C15.8335 17.9026 15.4058 17.6888 15.03 17.4C14.725 17.109 14.4867 16.7554 14.3313 16.3636C14.176 15.9718 14.1073 15.5509 14.13 15.13V5.66C14.1487 5.51326 14.1257 5.36422 14.0639 5.22986C14.002 5.0955 13.9036 4.98121 13.78 4.9C13.4665 4.75865 13.1231 4.69683 12.78 4.72V4.34H16.37V4.72H15.29V15.28C15.2737 15.6073 15.3287 15.9342 15.4513 16.2381C15.5739 16.542 15.7611 16.8157 16 17.04C16.2318 17.2739 16.5098 17.457 16.8162 17.5775C17.1227 17.6981 17.4509 17.7534 17.78 17.74C18.0838 17.7456 18.3849 17.6818 18.6604 17.5536C18.9359 17.4254 19.1786 17.236 19.37 17C19.7745 16.5192 19.9912 15.9082 19.98 15.28V5.66C19.98 5.03 19.65 4.72 18.98 4.72H18.64ZM25.43 10.15L28.43 5.99C28.5787 5.81482 28.7125 5.62749 28.83 5.43C28.912 5.31742 28.9668 5.18734 28.99 5.05C28.99 4.9 28.99 4.82 28.85 4.78C28.6951 4.7306 28.5323 4.71026 28.37 4.72H27.86V4.34H31.51V4.72H30.15L26.67 9.39L30.51 15.97C30.6409 16.1842 30.788 16.3882 30.95 16.58C31.103 16.7815 31.2773 16.9659 31.47 17.13C31.6356 17.2604 31.8318 17.3465 32.04 17.38C32.3376 17.4271 32.6388 17.4472 32.94 17.44V17.82H28.94V17.44H30.1L26.1 10.13L25.45 11.13V16.46C25.4397 16.6658 25.4773 16.8712 25.56 17.06C25.6035 17.2035 25.7001 17.3251 25.83 17.4C25.9762 17.4162 26.1238 17.4162 26.27 17.4C26.48 17.4 26.67 17.4 26.82 17.4V17.78H23.15V17.4H24.32V5.66C24.3324 5.52888 24.3144 5.39667 24.2676 5.27357C24.2208 5.15047 24.1464 5.03977 24.05 4.95C23.8229 4.78854 23.5484 4.70759 23.27 4.72H22.98V4.34H26.67V4.72H25.43V10.15ZM32.86 4.34H35.32V5.6C36.449 4.7325 37.8176 4.23326 39.24 4.17C40.7662 4.16763 42.2359 4.74694 43.35 5.79C43.9088 6.27336 44.3558 6.8726 44.6597 7.54608C44.9636 8.21957 45.1173 8.95115 45.11 9.69C45.1259 10.4572 44.981 11.2191 44.6848 11.927C44.3886 12.6348 43.9475 13.2728 43.39 13.8C42.8372 14.3422 42.1821 14.7691 41.4627 15.0558C40.7434 15.3425 39.9742 15.4833 39.2 15.47C39.26 15.47 39.91 15.83 41.2 16.47C42.2474 17.0998 43.4231 17.486 44.64 17.6C44.8217 17.6009 45.0029 17.5808 45.18 17.54C45.3201 17.5212 45.4556 17.4771 45.58 17.41L45.75 17.6C45.3257 17.9475 44.7878 18.1256 44.24 18.1C43.3795 18.0624 42.5297 17.8938 41.72 17.6C41.37 17.5 40.57 17.18 39.31 16.68C37.9374 16.0501 36.6019 15.3423 35.31 14.56V16.45C35.2927 16.6698 35.3199 16.8909 35.39 17.1C35.4258 17.1673 35.4772 17.225 35.5398 17.2685C35.6024 17.312 35.6744 17.3399 35.75 17.35L36.46 17.45H37.07V17.79H33.02V17.45H34.15V5.6C34.1616 5.47006 34.1412 5.33926 34.0907 5.21899C34.0401 5.09873 33.9609 4.99265 33.86 4.91C33.6181 4.74976 33.3292 4.67578 33.04 4.7H32.86V4.34ZM35.32 6.44V13.82L35.53 13.48C36.1515 13.937 36.8224 14.3228 37.53 14.63C38.1012 14.8914 38.7218 15.0278 39.35 15.03C39.9616 15.0324 40.5669 14.9063 41.1268 14.66C41.6866 14.4136 42.1885 14.0525 42.6 13.6C43.0505 13.147 43.4056 12.6083 43.6443 12.0157C43.8831 11.4232 44.0006 10.7888 43.99 10.15C43.9973 9.45309 43.8658 8.76169 43.6031 8.11614C43.3404 7.47059 42.9518 6.8838 42.46 6.39C41.9889 5.89029 41.4199 5.49299 40.7885 5.22288C40.157 4.95276 39.4767 4.81562 38.79 4.82C38.1243 4.80356 37.4638 4.94123 36.8602 5.22225C36.2565 5.50327 35.726 5.92004 35.31 6.44H35.32ZM53.95 17.44L51.33 9.06H49.65L48.18 15.06C48.0483 15.5324 47.9778 16.0197 47.97 16.51C47.9577 16.6301 47.97 16.7514 48.0061 16.8666C48.0422 16.9818 48.1014 17.0884 48.18 17.18C48.3377 17.3354 48.5487 17.4248 48.77 17.43C49.02 17.43 49.35 17.43 49.77 17.43V17.81H46.17V17.43H47.03L50.3 3.64H50.67L54.15 14.77C54.32 15.34 54.49 15.88 54.68 16.45C54.7655 16.7276 54.934 16.9723 55.1629 17.1511C55.3918 17.3299 55.67 17.4342 55.96 17.45V17.83H52.62V17.45L53.95 17.44ZM51.2 8.6L50.42 5.98L49.77 8.6H51.2ZM50.36 2.81L51.22 0H52.86L50.67 2.81H50.36ZM56.36 4.34H58.86V5.6C59.989 4.7325 61.3576 4.23326 62.78 4.17C64.2985 4.18065 65.7565 4.76672 66.86 5.81C67.4188 6.29336 67.8658 6.8926 68.1697 7.56608C68.4736 8.23957 68.6273 8.97115 68.62 9.71C68.6308 10.4801 68.4796 11.2439 68.1765 11.9519C67.8733 12.6599 67.4248 13.2963 66.86 13.82C66.3072 14.3622 65.6521 14.7891 64.9327 15.0758C64.2134 15.3625 63.4442 15.5033 62.67 15.49C62.73 15.49 63.38 15.85 64.67 16.49C65.7286 17.1158 66.9147 17.4952 68.14 17.6C68.3217 17.6009 68.5029 17.5808 68.68 17.54C68.8201 17.5212 68.9556 17.4771 69.08 17.41L69.25 17.6C68.8257 17.9475 68.2878 18.1256 67.74 18.1C66.8795 18.0617 66.0299 17.8931 65.22 17.6C64.87 17.5 64.07 17.18 62.81 16.68C61.4553 16.0614 60.1365 15.367 58.86 14.6V16.49C58.8427 16.7098 58.8699 16.9309 58.94 17.14C58.9758 17.2073 59.0272 17.265 59.0898 17.3085C59.1524 17.352 59.2244 17.3799 59.3 17.39L60.01 17.49H60.62V17.83H56.62V17.49H57.75V5.6C57.7616 5.47006 57.7412 5.33926 57.6907 5.21899C57.6401 5.09873 57.5609 4.99265 57.46 4.91C57.2181 4.74976 56.9292 4.67578 56.64 4.7H56.45L56.36 4.34ZM58.86 6.44V13.82L59.07 13.48C59.6915 13.937 60.3624 14.3228 61.07 14.63C61.6412 14.8914 62.2618 15.0278 62.89 15.03C63.4949 15.0268 64.0925 14.898 64.6451 14.6519C65.1976 14.4057 65.693 14.0475 66.1 13.6C66.5505 13.147 66.9056 12.6083 67.1443 12.0157C67.3831 11.4232 67.5006 10.7888 67.49 10.15C67.4973 9.45309 67.3658 8.76169 67.1031 8.11614C66.8404 7.47059 66.4518 6.8838 65.96 6.39C65.4889 5.89029 64.9199 5.49299 64.2885 5.22288C63.657 4.95276 62.9767 4.81562 62.29 4.82C61.6327 4.81127 60.9821 4.95265 60.3877 5.23339C59.7933 5.51412 59.2708 5.9268 58.86 6.44ZM60.38 0H60.92L62.77 1.68L64.66 0H65.14L63 2.81H62.52L60.38 0ZM77.38 3.48V8.72H77.01V7.46C77.0376 6.79982 76.9496 6.13988 76.75 5.51C76.6491 5.19313 76.4463 4.91844 76.1733 4.72858C75.9003 4.53872 75.5722 4.44431 75.24 4.46C74.9954 4.45345 74.7521 4.4971 74.5251 4.58825C74.298 4.67941 74.0921 4.81614 73.92 4.99C73.7457 5.16233 73.6081 5.36808 73.5153 5.5949C73.4225 5.82173 73.3765 6.06495 73.38 6.31C73.3859 6.66598 73.4717 7.01609 73.6309 7.33454C73.7901 7.65298 74.0188 7.93164 74.3 8.15C74.9512 8.65199 75.6554 9.08122 76.4 9.43C77.2904 9.86283 78.118 10.4145 78.86 11.07C79.2293 11.391 79.5257 11.7873 79.7292 12.2323C79.9328 12.6773 80.0387 13.1607 80.04 13.65C80.047 14.2948 79.9022 14.9322 79.6173 15.5107C79.3324 16.0892 78.9154 16.5925 78.4 16.98C77.3326 17.834 75.9964 18.2807 74.63 18.24C73.3437 18.2831 72.0845 17.8645 71.08 17.06C70.5979 16.672 70.2125 16.1774 69.9539 15.6152C69.6954 15.053 69.5708 14.4385 69.59 13.82C69.578 12.7936 69.9611 11.8018 70.66 11.05C70.9921 10.6872 71.3972 10.3989 71.8489 10.2041C72.3005 10.0094 72.7882 9.91252 73.28 9.92C73.9433 9.92711 74.5887 10.1364 75.13 10.52C75.3922 10.7018 75.607 10.9438 75.7566 11.2256C75.9062 11.5074 75.9863 11.821 75.99 12.14C75.9999 12.547 75.8573 12.9429 75.59 13.25C75.4543 13.4047 75.2865 13.5278 75.0982 13.6107C74.9099 13.6937 74.7057 13.7344 74.5 13.73H74.25H74.02L74.1 13.31C74.2344 13.2977 74.365 13.2584 74.4838 13.1943C74.6026 13.1302 74.7072 13.0427 74.7913 12.9372C74.8753 12.8316 74.9372 12.7101 74.9731 12.5799C75.0089 12.4498 75.0181 12.3138 75 12.18C74.9944 11.957 74.9437 11.7375 74.8509 11.5347C74.7581 11.3319 74.6251 11.15 74.46 11C74.29 10.8282 74.0875 10.6919 73.8643 10.5992C73.6411 10.5065 73.4017 10.4592 73.16 10.46C72.7944 10.4513 72.432 10.5303 72.1032 10.6903C71.7744 10.8504 71.4887 11.0869 71.27 11.38C70.7925 11.9907 70.5352 12.7448 70.54 13.52C70.5203 14.6029 70.9177 15.652 71.65 16.45C72.0396 16.8823 72.5188 17.2243 73.0542 17.4523C73.5896 17.6803 74.1684 17.7887 74.75 17.77C75.8527 17.7827 76.9212 17.3874 77.75 16.66C78.1549 16.3371 78.4807 15.9261 78.7025 15.4581C78.9243 14.9902 79.0363 14.4778 79.03 13.96C78.9979 13.4323 78.836 12.9206 78.5586 12.4705C78.2812 12.0205 77.897 11.6458 77.44 11.38C76.8588 10.9812 76.2544 10.6172 75.63 10.29C74.6923 9.87403 73.8512 9.2679 73.16 8.51C72.7664 7.95477 72.5822 7.27811 72.64 6.6C72.6356 6.23481 72.7123 5.8732 72.8644 5.5412C73.0166 5.2092 73.2405 4.91507 73.52 4.68C74.088 4.16342 74.8324 3.88426 75.6 3.9C75.8258 3.89812 76.051 3.925 76.27 3.98C76.5 4.05 76.75 4.15 77.03 4.26V3.48H77.38ZM83.38 17.48V4.72C82.7955 4.69806 82.2107 4.75184 81.64 4.88C81.3014 5.01769 81.0243 5.27351 80.86 5.6C80.6475 5.98852 80.5213 6.41829 80.49 6.86C80.4083 7.55357 80.3715 8.25169 80.38 8.95H80.06V3.69H80.4V4.34H87.59V3.69H87.97V8.97H87.59V7.6C87.59 7.33 87.53 7.12 87.51 6.97C87.4663 6.54293 87.3584 6.1249 87.19 5.73C87.1103 5.53947 86.9931 5.36692 86.8453 5.22262C86.6976 5.07831 86.5223 4.96519 86.33 4.89C86.1076 4.81439 85.8748 4.7739 85.64 4.77C85.33 4.77 84.97 4.77 84.57 4.77V16.48C84.5567 16.6978 84.6015 16.9153 84.7 17.11C84.7353 17.1798 84.7846 17.2415 84.8448 17.2914C84.905 17.3413 84.9749 17.3783 85.05 17.4L85.6 17.48H86.33V17.82H82.27V17.48H83.38ZM94.28 16.12L96.57 6.39L96.65 5.7C96.6717 5.54833 96.6515 5.39361 96.5915 5.2526C96.5316 5.11159 96.4342 4.98966 96.31 4.9C96.0219 4.76796 95.7066 4.70627 95.39 4.72H95.18V4.34H98.75V4.72H97.59L94.28 18.51H93.86L90.26 6.96C90.0914 6.29913 89.8215 5.66833 89.46 5.09C89.3313 4.95783 89.1748 4.85604 89.0018 4.79203C88.8288 4.72802 88.6437 4.70341 88.46 4.72H88.07V4.34H92.07V4.72H90.76L94.28 16.12ZM99.44 17.44H100.63V5.66C100.63 5.26 100.53 5.01 100.3 4.88C99.9802 4.76214 99.6406 4.70779 99.3 4.72V4.34H102.93V4.72H101.75V16.18C101.737 16.4354 101.761 16.6912 101.82 16.94C101.829 17.021 101.857 17.099 101.9 17.1682C101.943 17.2373 102.001 17.296 102.07 17.34C102.213 17.3846 102.361 17.4114 102.51 17.42C102.707 17.43 102.903 17.43 103.1 17.42V17.8H99.45L99.44 17.44ZM100.93 2.81L101.86 0H103.45L101.31 2.81H100.93ZM112.93 10.15L115.86 5.99C116.012 5.81734 116.146 5.62971 116.26 5.43C116.343 5.31666 116.401 5.18719 116.43 5.05C116.43 4.9 116.43 4.82 116.28 4.78C116.125 4.72967 115.962 4.70931 115.8 4.72H115.32V4.34H118.96V4.72H117.62L114.14 9.39L117.98 15.97C118.111 16.1842 118.258 16.3882 118.42 16.58C118.576 16.7794 118.75 16.9635 118.94 17.13C119.106 17.2604 119.302 17.3465 119.51 17.38C119.808 17.4271 120.109 17.4472 120.41 17.44V17.82H116.41V17.44H117.56L113.56 10.13L112.91 11.13V16.46C112.902 16.6647 112.936 16.8689 113.01 17.06C113.057 17.2017 113.153 17.3222 113.28 17.4C113.426 17.4162 113.574 17.4162 113.72 17.4C113.93 17.4 114.12 17.4 114.27 17.4V17.78H110.62V17.4H111.79V5.66C111.802 5.52888 111.784 5.39667 111.738 5.27357C111.691 5.15047 111.616 5.03977 111.52 4.95C111.296 4.78998 111.025 4.70906 110.75 4.72H110.45V4.34H114.14V4.72H112.91L112.93 10.15ZM128.04 3.94C129.956 3.92014 131.803 4.65674 133.18 5.99C133.868 6.62766 134.415 7.40159 134.787 8.26246C135.159 9.12334 135.347 10.0523 135.34 10.99C135.35 11.9537 135.15 12.908 134.755 13.7869C134.359 14.6658 133.778 15.4482 133.05 16.08C131.625 17.4467 129.725 18.2067 127.75 18.2C125.84 18.2387 123.992 17.5197 122.61 16.2C121.907 15.5605 121.349 14.7783 120.973 13.9056C120.597 13.033 120.412 12.09 120.43 11.14C120.421 10.1793 120.618 9.22791 121.008 8.34986C121.398 7.47182 121.971 6.68757 122.69 6.05C124.125 4.67455 126.042 3.91695 128.03 3.94H128.04ZM127.66 4.46C126.84 4.44415 126.027 4.60471 125.274 4.93081C124.522 5.2569 123.849 5.7409 123.3 6.35C122.144 7.54942 121.505 9.1544 121.52 10.82C121.504 12.6007 122.174 14.3192 123.39 15.62C123.949 16.2541 124.634 16.7656 125.4 17.1224C126.167 17.4791 126.999 17.6735 127.844 17.6932C128.689 17.713 129.53 17.5576 130.312 17.237C131.094 16.9163 131.802 16.4373 132.39 15.83C132.988 15.2471 133.46 14.5481 133.779 13.776C134.097 13.0039 134.254 12.175 134.24 11.34C134.243 9.57197 133.558 7.87215 132.33 6.6C131.75 5.92748 131.031 5.38813 130.224 5.0188C129.416 4.64946 128.538 4.45886 127.65 4.46H127.66ZM143.47 3.46V8.7H143.09V7.46C143.12 6.80043 143.035 6.14066 142.84 5.51C142.739 5.19313 142.536 4.91844 142.263 4.72858C141.99 4.53872 141.662 4.44431 141.33 4.46C141.085 4.45598 140.843 4.501 140.616 4.59242C140.389 4.68385 140.183 4.8198 140.009 4.99226C139.836 5.16472 139.699 5.37019 139.606 5.59652C139.514 5.82285 139.467 6.06546 139.47 6.31C139.476 6.66598 139.562 7.01609 139.721 7.33454C139.88 7.65298 140.109 7.93164 140.39 8.15C141.041 8.65199 141.745 9.08122 142.49 9.43C143.384 9.86205 144.215 10.4138 144.96 11.07C145.326 11.3931 145.62 11.7901 145.821 12.2348C146.023 12.6794 146.128 13.1617 146.13 13.65C146.139 14.2941 145.996 14.9312 145.713 15.5098C145.43 16.0883 145.014 16.592 144.5 16.98C143.429 17.834 142.089 18.2804 140.72 18.24C139.437 18.2834 138.181 17.8646 137.18 17.06C136.698 16.672 136.312 16.1774 136.054 15.6152C135.795 15.053 135.671 14.4385 135.69 13.82C135.678 12.7936 136.061 11.8018 136.76 11.05C137.091 10.6857 137.496 10.3964 137.948 10.2015C138.4 10.0066 138.888 9.91059 139.38 9.92C140.043 9.92711 140.689 10.1364 141.23 10.52C141.492 10.7018 141.707 10.9438 141.857 11.2256C142.006 11.5074 142.086 11.821 142.09 12.14C142.1 12.547 141.957 12.9429 141.69 13.25C141.554 13.4047 141.386 13.5278 141.198 13.6107C141.01 13.6937 140.806 13.7344 140.6 13.73H140.35H140.12L140.2 13.31C140.334 13.2977 140.465 13.2584 140.584 13.1943C140.703 13.1302 140.807 13.0427 140.891 12.9372C140.975 12.8316 141.037 12.7101 141.073 12.5799C141.109 12.4498 141.118 12.3138 141.1 12.18C141.083 11.7307 140.889 11.3065 140.56 11C140.39 10.8282 140.188 10.6919 139.964 10.5992C139.741 10.5065 139.502 10.4592 139.26 10.46C138.894 10.4513 138.532 10.5303 138.203 10.6903C137.874 10.8504 137.589 11.0869 137.37 11.38C136.892 11.9907 136.635 12.7448 136.64 13.52C136.616 14.6036 137.014 15.6542 137.75 16.45C138.14 16.8823 138.619 17.2243 139.154 17.4523C139.69 17.6803 140.268 17.7887 140.85 17.77C141.964 17.7668 143.036 17.3498 143.86 16.6C144.265 16.2771 144.591 15.8661 144.812 15.3981C145.034 14.9302 145.146 14.4178 145.14 13.9C145.106 13.3715 144.942 12.8596 144.663 12.4096C144.384 11.9596 143.998 11.5853 143.54 11.32C142.964 10.9184 142.363 10.5544 141.74 10.23C140.801 9.81686 139.959 9.21034 139.27 8.45C138.885 7.93381 138.685 7.3036 138.7 6.66C138.693 6.29449 138.769 5.93218 138.921 5.59985C139.074 5.26752 139.299 4.97367 139.58 4.74C140.148 4.22342 140.892 3.94426 141.66 3.96C141.886 3.95812 142.111 3.985 142.33 4.04C142.56 4.11 142.81 4.21 143.08 4.32V3.48L143.47 3.46ZM149.47 17.46V4.72C148.886 4.69806 148.301 4.75184 147.73 4.88C147.381 5.01849 147.095 5.28235 146.93 5.62C146.718 6.00958 146.589 6.43843 146.55 6.88C146.478 7.57424 146.444 8.27201 146.45 8.97H146.11V3.69H146.45V4.34H153.64V3.69H154.02V8.97H153.64V7.6C153.64 7.33 153.58 7.12 153.56 6.97C153.516 6.54293 153.408 6.1249 153.24 5.73C153.16 5.53947 153.043 5.36692 152.895 5.22262C152.748 5.07831 152.572 4.96519 152.38 4.89C152.157 4.81648 151.925 4.77605 151.69 4.77C151.37 4.77 151.02 4.77 150.62 4.77V16.48C150.607 16.6978 150.652 16.9153 150.75 17.11C150.784 17.1805 150.833 17.2428 150.894 17.2928C150.954 17.3429 151.024 17.3794 151.1 17.4L151.65 17.48H152.38V17.82H148.31V17.48L149.47 17.46ZM160.72 17.8H154.44V17.42H155.65V5.7C155.669 5.55139 155.651 5.40038 155.596 5.26068C155.542 5.12098 155.454 4.99701 155.34 4.9C155.026 4.76134 154.683 4.69963 154.34 4.72V4.34H160.71V3.48H161.09V8.03H160.71V7.29C160.728 6.81002 160.667 6.33037 160.53 5.87C160.412 5.57755 160.206 5.32927 159.94 5.16C159.61 4.97559 159.246 4.85993 158.87 4.82C158.356 4.75353 157.838 4.72013 157.32 4.72H156.86V8.03H158.63V6.03H158.86V10.98H158.55C158.554 10.5376 158.517 10.0957 158.44 9.66C158.415 9.44183 158.332 9.23428 158.2 9.05858C158.068 8.88288 157.892 8.74533 157.69 8.66C157.588 8.61466 157.48 8.58434 157.37 8.57C157.174 8.5561 156.976 8.5561 156.78 8.57V17.57C157.589 17.5749 158.397 17.5281 159.2 17.43C159.696 17.2828 160.115 16.9496 160.37 16.5C160.612 16.0063 160.726 15.4594 160.7 14.91V13.73H161.08V18.6H160.7L160.72 17.8ZM165.72 4.32V4.7H164.53V17.44C165.33 17.4719 166.131 17.374 166.9 17.15C167.282 17.0403 167.617 16.805 167.849 16.482C168.081 16.1591 168.198 15.7674 168.18 15.37V12.05H168.56V18.6H168.18V17.78H162.26V17.4H163.44V5.6C163.458 5.46006 163.435 5.31794 163.375 5.19037C163.315 5.06281 163.219 4.95512 163.1 4.88C162.786 4.74021 162.443 4.67845 162.1 4.7V4.32H165.72ZM175.91 17.8H169.62V17.42H170.86V5.7C170.877 5.5515 170.858 5.40104 170.804 5.26165C170.75 5.12226 170.663 4.99813 170.55 4.9C170.235 4.76243 169.893 4.70077 169.55 4.72V4.34H175.92V3.48H176.3V8.03H175.92V7.29C175.94 6.8092 175.876 6.32861 175.73 5.87C175.619 5.57647 175.416 5.32716 175.15 5.16C174.82 4.97559 174.456 4.85993 174.08 4.82C173.566 4.75353 173.048 4.72013 172.53 4.72H172V8.03H173.76V6.03H174.08V10.98H173.76C173.766 10.5379 173.733 10.0961 173.66 9.66C173.635 9.44041 173.551 9.23165 173.417 9.05568C173.284 8.87971 173.105 8.74302 172.9 8.66C172.802 8.61341 172.698 8.58301 172.59 8.57C172.394 8.55649 172.196 8.55649 172 8.57V17.57C172.806 17.5753 173.611 17.5285 174.41 17.43C174.909 17.2851 175.332 16.9516 175.59 16.5C175.832 16.0063 175.946 15.4594 175.92 14.91V13.73H176.3V18.6H175.92L175.91 17.8ZM189.1 4.86V3.69H189.44V8.97H189.1C189.113 8.30182 189.079 7.63356 189 6.97C188.91 6.46614 188.674 6 188.32 5.63C187.917 5.25019 187.431 4.96945 186.9 4.81C186.288 4.61787 185.651 4.51679 185.01 4.51C184.157 4.48853 183.31 4.65682 182.53 5.0027C181.75 5.34858 181.057 5.86341 180.5 6.51C179.431 7.68935 178.845 9.22823 178.86 10.82C178.839 12.5845 179.486 14.2918 180.67 15.6C181.539 16.6029 182.712 17.2936 184.011 17.5663C185.309 17.839 186.661 17.6787 187.86 17.11C188.536 16.7779 189.154 16.339 189.69 15.81L190.04 16.27C189.35 16.883 188.558 17.3704 187.7 17.71C186.846 18.0573 185.932 18.2373 185.01 18.24C184.062 18.2575 183.12 18.0822 182.241 17.7247C181.363 17.3671 180.566 16.8348 179.9 16.16C179.212 15.5241 178.665 14.75 178.296 13.8884C177.928 13.0268 177.745 12.0971 177.76 11.16C177.75 10.1696 177.957 9.18902 178.366 8.28718C178.776 7.38535 179.378 6.58417 180.13 5.94C181.576 4.61969 183.473 3.9039 185.43 3.94C186.035 3.93832 186.639 4.00202 187.23 4.13C187.896 4.27882 188.533 4.53195 189.12 4.88L189.1 4.86Z" fill="#360D36"/>
</g>
<defs>
<clipPath id="clip0">
<rect width="190.06" height="18.64" fill="white"/>
</clipPath>
</defs>
</svg>
